<?xml version="1.0" encoding="UTF-8" standalone="no"?>
<svg xmlns:svg="http://www.w3.org/2000/svg"
     xmlns="http://www.w3.org/2000/svg" version="1.1"
     width="360.0" height="185.0">
    <!-- Created with parliamentarch (https://github.com/Gouvernathor/parliamentarch/) -->
    <text x="180.0" y="175.0"
          style="font-size:36px;font-weight:bold;text-align:center;text-anchor:middle;font-family:sans-serif">108</text>
    <g style="fill:#ff0000"
       id="0-Liste-Logan-FERREIRA">
        <title>Liste Logan FERREIRA</title>
        <circle cx="13.14" cy="172.05" r="6.36"/>
    </g>
    <g style="fill:#e5e5e5"
       id="1-Party-2">
        <title>Party 2</title>
        <circle cx="29.07" cy="172.05" r="6.36"/>
        <circle cx="45.01" cy="172.05" r="6.36"/>
        <circle cx="60.95" cy="172.05" r="6.36"/>
        <circle cx="76.90" cy="172.05" r="6.36"/>
        <circle cx="92.86" cy="172.05" r="6.36"/>
        <circle cx="15.66" cy="150.08" r="6.36"/>
        <circle cx="32.01" cy="149.31" r="6.36"/>
        <circle cx="48.24" cy="149.59" r="6.36"/>
        <circle cx="64.53" cy="149.93" r="6.36"/>
        <circle cx="80.92" cy="150.39" r="6.36"/>
        <circle cx="21.05" cy="128.64" r="6.36"/>
        <circle cx="38.36" cy="127.28" r="6.36"/>
        <circle cx="98.11" cy="149.17" r="6.36"/>
        <circle cx="55.18" cy="127.98" r="6.36"/>
        <circle cx="72.19" cy="128.88" r="6.36"/>
        <circle cx="29.22" cy="108.10" r="6.36"/>
        <circle cx="89.44" cy="130.08" r="6.36"/>
        <circle cx="47.96" cy="106.47" r="6.36"/>
        <circle cx="65.63" cy="107.84" r="6.36"/>
        <circle cx="40.04" cy="88.81" r="6.36"/>
        <circle cx="109.25" cy="128.51" r="6.36"/>
        <circle cx="83.64" cy="109.63" r="6.36"/>
        <circle cx="60.60" cy="87.35" r="6.36"/>
        <circle cx="53.31" cy="71.13" r="6.36"/>
        <circle cx="102.07" cy="112.03" r="6.36"/>
        <circle cx="79.31" cy="89.74" r="6.36"/>
        <circle cx="75.98" cy="70.35" r="6.36"/>
        <circle cx="98.49" cy="92.86" r="6.36"/>
        <circle cx="68.79" cy="55.35" r="6.36"/>
        <circle cx="125.48" cy="111.56" r="6.36"/>
        <circle cx="95.82" cy="74.17" r="6.36"/>
        <circle cx="118.23" cy="97.07" r="6.36"/>
        <circle cx="93.76" cy="55.88" r="6.36"/>
        <circle cx="86.23" cy="41.76" r="6.36"/>
        <circle cx="116.21" cy="79.16" r="6.36"/>
        <circle cx="114.70" cy="61.59" r="6.36"/>
        <circle cx="105.31" cy="30.58" r="6.36"/>
        <circle cx="113.52" cy="44.27" r="6.36"/>
        <circle cx="137.19" cy="85.87" r="6.36"/>
        <circle cx="145.64" cy="99.53" r="6.36"/>
        <circle cx="136.18" cy="69.02" r="6.36"/>
        <circle cx="135.42" cy="52.33" r="6.36"/>
        <circle cx="125.69" cy="22.03" r="6.36"/>
        <circle cx="134.81" cy="35.78" r="6.36"/>
        <circle cx="158.10" cy="78.94" r="6.36"/>
        <circle cx="147.03" cy="16.24" r="6.36"/>
        <circle cx="157.70" cy="62.78" r="6.36"/>
        <circle cx="157.39" cy="46.68" r="6.36"/>
        <circle cx="157.14" cy="30.60" r="6.36"/>
        <circle cx="168.26" cy="93.29" r="6.36"/>
        <circle cx="168.95" cy="13.32" r="6.36"/>
        <circle cx="180.00" cy="76.59" r="6.36"/>
        <circle cx="180.00" cy="60.68" r="6.36"/>
        <circle cx="180.00" cy="44.77" r="6.36"/>
        <circle cx="180.00" cy="28.86" r="6.36"/>
        <circle cx="191.05" cy="13.32" r="6.36"/>
        <circle cx="191.74" cy="93.29" r="6.36"/>
        <circle cx="202.86" cy="30.60" r="6.36"/>
        <circle cx="202.61" cy="46.68" r="6.36"/>
        <circle cx="202.30" cy="62.78" r="6.36"/>
        <circle cx="212.97" cy="16.24" r="6.36"/>
        <circle cx="201.90" cy="78.94" r="6.36"/>
        <circle cx="225.19" cy="35.78" r="6.36"/>
        <circle cx="234.31" cy="22.03" r="6.36"/>
        <circle cx="224.58" cy="52.33" r="6.36"/>
        <circle cx="223.82" cy="69.02" r="6.36"/>
        <circle cx="214.36" cy="99.53" r="6.36"/>
        <circle cx="222.81" cy="85.87" r="6.36"/>
        <circle cx="246.48" cy="44.27" r="6.36"/>
        <circle cx="254.69" cy="30.58" r="6.36"/>
        <circle cx="245.30" cy="61.59" r="6.36"/>
        <circle cx="243.79" cy="79.16" r="6.36"/>
        <circle cx="273.77" cy="41.76" r="6.36"/>
        <circle cx="266.24" cy="55.88" r="6.36"/>
        <circle cx="241.77" cy="97.07" r="6.36"/>
        <circle cx="264.18" cy="74.17" r="6.36"/>
        <circle cx="234.52" cy="111.56" r="6.36"/>
        <circle cx="291.21" cy="55.35" r="6.36"/>
        <circle cx="261.51" cy="92.86" r="6.36"/>
        <circle cx="284.02" cy="70.35" r="6.36"/>
        <circle cx="280.69" cy="89.74" r="6.36"/>
        <circle cx="257.93" cy="112.03" r="6.36"/>
        <circle cx="306.69" cy="71.13" r="6.36"/>
        <circle cx="299.40" cy="87.35" r="6.36"/>
        <circle cx="276.36" cy="109.63" r="6.36"/>
        <circle cx="250.75" cy="128.51" r="6.36"/>
        <circle cx="319.96" cy="88.81" r="6.36"/>
        <circle cx="294.37" cy="107.84" r="6.36"/>
        <circle cx="312.04" cy="106.47" r="6.36"/>
        <circle cx="270.56" cy="130.08" r="6.36"/>
        <circle cx="330.78" cy="108.10" r="6.36"/>
        <circle cx="287.81" cy="128.88" r="6.36"/>
        <circle cx="304.82" cy="127.98" r="6.36"/>
        <circle cx="261.89" cy="149.17" r="6.36"/>
        <circle cx="321.64" cy="127.28" r="6.36"/>
        <circle cx="338.95" cy="128.64" r="6.36"/>
        <circle cx="279.08" cy="150.39" r="6.36"/>
        <circle cx="295.47" cy="149.93" r="6.36"/>
        <circle cx="311.76" cy="149.59" r="6.36"/>
        <circle cx="327.99" cy="149.31" r="6.36"/>
        <circle cx="344.34" cy="150.08" r="6.36"/>
        <circle cx="267.14" cy="172.05" r="6.36"/>
        <circle cx="283.10" cy="172.05" r="6.36"/>
        <circle cx="299.05" cy="172.05" r="6.36"/>
        <circle cx="314.99" cy="172.05" r="6.36"/>
        <circle cx="330.93" cy="172.05" r="6.36"/>
        <circle cx="346.86" cy="172.05" r="6.36"/>
    </g>
</svg>

