<?xml version="1.0" encoding="UTF-8" standalone="no"?>
<svg xmlns:svg="http://www.w3.org/2000/svg"
     xmlns="http://www.w3.org/2000/svg" version="1.1"
     width="360.0" height="185.0">
    <!-- Created with parliamentarch (https://github.com/Gouvernathor/parliamentarch/) -->
    <text x="180.0" y="175.0"
          style="font-size:36px;font-weight:bold;text-align:center;text-anchor:middle;font-family:sans-serif">32</text>
    <g style="fill:#adadad"
       id="0-Party-1">
        <title>Party 1</title>
        <circle cx="17.98" cy="167.50" r="10.00"/>
        <circle cx="43.07" cy="167.50" r="10.00"/>
        <circle cx="68.20" cy="167.50" r="10.00"/>
        <circle cx="93.40" cy="167.50" r="10.00"/>
        <circle cx="28.84" cy="120.37" r="10.00"/>
        <circle cx="56.85" cy="118.84" r="10.00"/>
        <circle cx="87.01" cy="116.68" r="10.00"/>
        <circle cx="53.09" cy="78.52" r="10.00"/>
        <circle cx="87.30" cy="78.45" r="10.00"/>
        <circle cx="122.72" cy="113.86" r="10.00"/>
        <circle cx="88.58" cy="45.66" r="10.00"/>
        <circle cx="127.40" cy="80.55" r="10.00"/>
        <circle cx="130.29" cy="51.80" r="10.00"/>
        <circle cx="132.17" cy="24.70" r="10.00"/>
        <circle cx="180.00" cy="92.50" r="10.00"/>
        <circle cx="180.00" cy="67.50" r="10.00"/>
        <circle cx="180.00" cy="42.50" r="10.00"/>
        <circle cx="180.00" cy="17.50" r="10.00"/>
        <circle cx="227.83" cy="24.70" r="10.00"/>
        <circle cx="229.71" cy="51.80" r="10.00"/>
        <circle cx="232.60" cy="80.55" r="10.00"/>
        <circle cx="271.42" cy="45.66" r="10.00"/>
        <circle cx="237.28" cy="113.86" r="10.00"/>
        <circle cx="272.70" cy="78.45" r="10.00"/>
        <circle cx="306.91" cy="78.52" r="10.00"/>
        <circle cx="272.99" cy="116.68" r="10.00"/>
        <circle cx="303.15" cy="118.84" r="10.00"/>
        <circle cx="331.16" cy="120.37" r="10.00"/>
        <circle cx="266.60" cy="167.50" r="10.00"/>
        <circle cx="291.80" cy="167.50" r="10.00"/>
        <circle cx="316.93" cy="167.50" r="10.00"/>
        <circle cx="342.02" cy="167.50" r="10.00"/>
    </g>
</svg>

